<svg width="37" height="35" viewBox="0 0 37 35" fill="none" xmlns="http://www.w3.org/2000/svg">
<path d="M35.8438 30.0627H19.6562C19.018 30.0627 18.5 29.5471 18.5 28.9065V5.78149C18.5 5.14324 19.018 4.62524 19.6562 4.62524H35.8438C36.482 4.62524 37 5.14324 37 5.78149V28.9065C37 29.5471 36.482 30.0627 35.8438 30.0627Z" fill="#ECEFF1"/>
<path d="M31.2188 11.5627H19.6562C19.018 11.5627 18.5 11.0471 18.5 10.4065C18.5 9.76593 19.018 9.25024 19.6562 9.25024H31.2188C31.857 9.25024 32.375 9.76824 32.375 10.4065C32.375 11.0447 31.857 11.5627 31.2188 11.5627Z" fill="#1976D2"/>
<path d="M31.2188 16.1877H19.6562C19.018 16.1877 18.5 15.6721 18.5 15.0315C18.5 14.3909 19.018 13.8752 19.6562 13.8752H31.2188C31.857 13.8752 32.375 14.3932 32.375 15.0315C32.375 15.6697 31.857 16.1877 31.2188 16.1877Z" fill="#1976D2"/>
<path d="M31.2188 20.8127H19.6562C19.018 20.8127 18.5 20.2971 18.5 19.6565C18.5 19.0159 19.018 18.5002 19.6562 18.5002H31.2188C31.857 18.5002 32.375 19.0182 32.375 19.6565C32.375 20.2947 31.857 20.8127 31.2188 20.8127Z" fill="#1976D2"/>
<path d="M31.2188 25.4377H19.6562C19.018 25.4377 18.5 24.9221 18.5 24.2815C18.5 23.6409 19.018 23.1252 19.6562 23.1252H31.2188C31.857 23.1252 32.375 23.6432 32.375 24.2815C32.375 24.9197 31.857 25.4377 31.2188 25.4377Z" fill="#1976D2"/>
<path d="M20.3939 0.268498C20.1303 0.0464982 19.7765 -0.0460018 19.4435 0.0210607L0.9435 3.48981C0.39775 3.59156 0 4.07025 0 4.62525V30.0627C0 30.6177 0.395437 31.0964 0.9435 31.1982L19.4435 34.6669C19.5136 34.6807 19.5848 34.6877 19.6562 34.6877C19.9245 34.6877 20.1858 34.5952 20.3939 34.4218C20.6594 34.2024 20.8129 33.8759 20.8125 33.5315V1.1565C20.8125 0.811936 20.6599 0.488186 20.3939 0.268498Z" fill="#1565C0"/>
<path d="M15.0245 23.2547C14.9644 23.7843 14.5481 24.2075 14.0185 24.2722C13.971 24.2787 13.9231 24.2818 13.8752 24.2815C13.3939 24.2806 12.9632 23.9824 12.7929 23.5322L10.4064 17.1682L8.01992 23.5322C7.83492 24.0271 7.3493 24.33 6.8128 24.2745C6.28786 24.219 5.86699 23.812 5.79299 23.2871L4.63674 15.1933C4.54655 14.5643 4.98592 13.977 5.61724 13.8868C6.25086 13.7943 6.83592 14.236 6.92611 14.8673L7.4418 18.484L9.32186 13.4682C9.65949 12.5663 11.1487 12.5663 11.4887 13.4682L13.26 18.1903L13.8821 12.5895C13.9538 11.9558 14.5412 11.5003 15.1586 11.5673C15.7945 11.6413 16.2501 12.2125 16.1807 12.8462L15.0245 23.2547Z" fill="#FAFAFA"/>
</svg>
