<svg width="42" height="24" viewBox="0 0 42 24" fill="none" xmlns="http://www.w3.org/2000/svg">
<rect width="42" height="24" rx="12" fill="#0095FF"/>
<circle cx="29.5" cy="11.5" r="10.5" fill="white"/>
<path fill-rule="evenodd" clip-rule="evenodd" d="M32.333 8.98219C32.7512 8.43371 33.5535 8.3145 34.1249 8.71592C34.6964 9.11734 34.8206 9.88738 34.4023 10.4359L30.3092 15.8037C29.9469 16.2789 29.2514 16.3323 28.8207 15.918L25.5744 12.7947C25.0743 12.3135 25.0753 11.5343 25.5766 11.0543C26.0779 10.5742 26.8897 10.5752 27.3899 11.0563L29.3289 12.9218L32.333 8.98219Z" fill="#0095FF"/>
<mask id="mask0_0_7782" style="mask-type:luminance" maskUnits="userSpaceOnUse" x="25" y="8" width="10" height="9">
<path fill-rule="evenodd" clip-rule="evenodd" d="M32.333 8.98219C32.7512 8.43371 33.5535 8.3145 34.1249 8.71592C34.6964 9.11734 34.8206 9.88738 34.4023 10.4359L30.3092 15.8037C29.9469 16.2789 29.2514 16.3323 28.8207 15.918L25.5744 12.7947C25.0743 12.3135 25.0753 11.5343 25.5766 11.0543C26.0779 10.5742 26.8897 10.5752 27.3899 11.0563L29.3289 12.9218L32.333 8.98219Z" fill="white"/>
</mask>
<g mask="url(#mask0_0_7782)">
</g>
</svg>
