<svg width="37" height="37" viewBox="0 0 37 37" fill="none" xmlns="http://www.w3.org/2000/svg">
<path fill-rule="evenodd" clip-rule="evenodd" d="M30.0622 31.6042H6.93717C4.81276 31.6042 3.08301 29.9223 3.08301 27.8549V9.14521C3.08301 7.07783 4.81276 5.39587 6.93717 5.39587H14.0304C14.4913 5.39587 14.9307 5.604 15.2236 5.96167L19.2304 10.8626H30.0622C32.1866 10.8626 33.9163 12.5446 33.9163 14.612V27.8549C33.9163 29.9223 32.1866 31.6042 30.0622 31.6042Z" fill="#C5CEE0"/>
<mask id="mask0_0_8192" style="mask-type:luminance" maskUnits="userSpaceOnUse" x="3" y="5" width="31" height="27">
<path fill-rule="evenodd" clip-rule="evenodd" d="M30.0622 31.6042H6.93717C4.81276 31.6042 3.08301 29.9223 3.08301 27.8549V9.14521C3.08301 7.07783 4.81276 5.39587 6.93717 5.39587H14.0304C14.4913 5.39587 14.9307 5.604 15.2236 5.96167L19.2304 10.8626H30.0622C32.1866 10.8626 33.9163 12.5446 33.9163 14.612V27.8549C33.9163 29.9223 32.1866 31.6042 30.0622 31.6042Z" fill="white"/>
</mask>
<g mask="url(#mask0_0_8192)">
</g>
</svg>
