<svg width="16" height="16" viewBox="0 0 16 16" fill="none" xmlns="http://www.w3.org/2000/svg">
<path fill-rule="evenodd" clip-rule="evenodd" d="M3.48786 7.09366C3.72386 7.37633 4.14386 7.41499 4.42652 7.17899L7.33319 4.75699V12.667C7.33319 13.035 7.63186 13.3337 7.99986 13.3337C8.36786 13.3337 8.66652 13.035 8.66652 12.667V4.75699L11.5732 7.17899C11.8565 7.41499 12.2765 7.37633 12.5119 7.09366C12.7479 6.81099 12.7099 6.39033 12.4265 6.15499L8.42653 2.82166C8.39519 2.79499 8.35786 2.78233 8.32319 2.76233C8.29586 2.74633 8.27186 2.72766 8.24186 2.71566C8.16386 2.68499 8.08252 2.66699 7.99986 2.66699C7.91719 2.66699 7.83586 2.68499 7.75786 2.71566C7.72786 2.72766 7.70386 2.74633 7.67653 2.76233C7.64186 2.78233 7.60452 2.79499 7.57319 2.82166L3.57319 6.15499C3.29052 6.39033 3.25186 6.81099 3.48786 7.09366Z" fill="#0095FF"/>
<mask id="mask0_93_5463" style="mask-type:luminance" maskUnits="userSpaceOnUse" x="3" y="2" width="10" height="12">
<path fill-rule="evenodd" clip-rule="evenodd" d="M3.48786 7.09366C3.72386 7.37633 4.14386 7.41499 4.42652 7.17899L7.33319 4.75699V12.667C7.33319 13.035 7.63186 13.3337 7.99986 13.3337C8.36786 13.3337 8.66652 13.035 8.66652 12.667V4.75699L11.5732 7.17899C11.8565 7.41499 12.2765 7.37633 12.5119 7.09366C12.7479 6.81099 12.7099 6.39033 12.4265 6.15499L8.42653 2.82166C8.39519 2.79499 8.35786 2.78233 8.32319 2.76233C8.29586 2.74633 8.27186 2.72766 8.24186 2.71566C8.16386 2.68499 8.08252 2.66699 7.99986 2.66699C7.91719 2.66699 7.83586 2.68499 7.75786 2.71566C7.72786 2.72766 7.70386 2.74633 7.67653 2.76233C7.64186 2.78233 7.60452 2.79499 7.57319 2.82166L3.57319 6.15499C3.29052 6.39033 3.25186 6.81099 3.48786 7.09366Z" fill="white"/>
</mask>
<g mask="url(#mask0_93_5463)">
</g>
</svg>
