<svg width="16" height="16" viewBox="0 0 16 16" fill="none" xmlns="http://www.w3.org/2000/svg">
<path fill-rule="evenodd" clip-rule="evenodd" d="M3.48761 7.09317C3.72361 7.37584 4.14361 7.4145 4.42628 7.1785L7.33295 4.7565V12.6665C7.33295 13.0345 7.63161 13.3332 7.99961 13.3332C8.36761 13.3332 8.66628 13.0345 8.66628 12.6665V4.7565L11.5729 7.1785C11.8563 7.4145 12.2763 7.37584 12.5116 7.09317C12.7476 6.8105 12.7096 6.38984 12.4263 6.1545L8.42628 2.82117C8.39495 2.7945 8.35761 2.78184 8.32295 2.76184C8.29561 2.74584 8.27161 2.72717 8.24161 2.71517C8.16361 2.6845 8.08228 2.6665 7.99961 2.6665C7.91695 2.6665 7.83561 2.6845 7.75761 2.71517C7.72761 2.72717 7.70361 2.74584 7.67628 2.76184C7.64161 2.78184 7.60428 2.7945 7.57295 2.82117L3.57295 6.1545C3.29028 6.38984 3.25161 6.8105 3.48761 7.09317" fill="#18203A"/>
<mask id="mask0_117_6193" style="mask-type:luminance" maskUnits="userSpaceOnUse" x="3" y="2" width="10" height="12">
<path fill-rule="evenodd" clip-rule="evenodd" d="M3.48761 7.09317C3.72361 7.37584 4.14361 7.4145 4.42628 7.1785L7.33295 4.7565V12.6665C7.33295 13.0345 7.63161 13.3332 7.99961 13.3332C8.36761 13.3332 8.66628 13.0345 8.66628 12.6665V4.7565L11.5729 7.1785C11.8563 7.4145 12.2763 7.37584 12.5116 7.09317C12.7476 6.8105 12.7096 6.38984 12.4263 6.1545L8.42628 2.82117C8.39495 2.7945 8.35761 2.78184 8.32295 2.76184C8.29561 2.74584 8.27161 2.72717 8.24161 2.71517C8.16361 2.6845 8.08228 2.6665 7.99961 2.6665C7.91695 2.6665 7.83561 2.6845 7.75761 2.71517C7.72761 2.72717 7.70361 2.74584 7.67628 2.76184C7.64161 2.78184 7.60428 2.7945 7.57295 2.82117L3.57295 6.1545C3.29028 6.38984 3.25161 6.8105 3.48761 7.09317" fill="white"/>
</mask>
<g mask="url(#mask0_117_6193)">
</g>
</svg>
