<svg width="16" height="16" viewBox="0 0 16 16" fill="none" xmlns="http://www.w3.org/2000/svg">
<path fill-rule="evenodd" clip-rule="evenodd" d="M12.5118 8.9065C12.2758 8.62384 11.8558 8.58517 11.5732 8.82117L8.6665 11.2432V3.33317C8.6665 2.96517 8.36783 2.6665 7.99983 2.6665C7.63183 2.6665 7.33317 2.96517 7.33317 3.33317V11.2432L4.4265 8.82117C4.14316 8.58517 3.72316 8.62384 3.48783 8.9065C3.25183 9.18917 3.28983 9.60984 3.57316 9.84517L7.57316 13.1785C7.6045 13.2052 7.64183 13.2178 7.6765 13.2378C7.70383 13.2538 7.72783 13.2725 7.75783 13.2845C7.83583 13.3152 7.91717 13.3332 7.99983 13.3332C8.0825 13.3332 8.16383 13.3152 8.24183 13.2845C8.27183 13.2725 8.29583 13.2538 8.32316 13.2378C8.35783 13.2178 8.39516 13.2052 8.4265 13.1785L12.4265 9.84517C12.7092 9.60984 12.7478 9.18917 12.5118 8.9065Z" fill="#18203A"/>
<mask id="mask0_117_8604" style="mask-type:luminance" maskUnits="userSpaceOnUse" x="3" y="2" width="10" height="12">
<path fill-rule="evenodd" clip-rule="evenodd" d="M12.5118 8.9065C12.2758 8.62384 11.8558 8.58517 11.5732 8.82117L8.6665 11.2432V3.33317C8.6665 2.96517 8.36783 2.6665 7.99983 2.6665C7.63183 2.6665 7.33317 2.96517 7.33317 3.33317V11.2432L4.4265 8.82117C4.14316 8.58517 3.72316 8.62384 3.48783 8.9065C3.25183 9.18917 3.28983 9.60984 3.57316 9.84517L7.57316 13.1785C7.6045 13.2052 7.64183 13.2178 7.6765 13.2378C7.70383 13.2538 7.72783 13.2725 7.75783 13.2845C7.83583 13.3152 7.91717 13.3332 7.99983 13.3332C8.0825 13.3332 8.16383 13.3152 8.24183 13.2845C8.27183 13.2725 8.29583 13.2538 8.32316 13.2378C8.35783 13.2178 8.39516 13.2052 8.4265 13.1785L12.4265 9.84517C12.7092 9.60984 12.7478 9.18917 12.5118 8.9065Z" fill="white"/>
</mask>
<g mask="url(#mask0_117_8604)">
</g>
</svg>
