<svg width="20" height="20" viewBox="0 0 20 20" fill="none" xmlns="http://www.w3.org/2000/svg">
<circle cx="10" cy="10" r="10" fill="#18203A"/>
<path fill-rule="evenodd" clip-rule="evenodd" d="M8.91908 9.02876C9.17116 9.02876 9.31866 9.16417 9.31866 9.38417C9.31866 9.62001 9.15908 9.75334 8.79741 9.75334H8.44199V9.02876H8.91908ZM11.1521 9.66168C10.8913 9.66168 10.7196 9.86085 10.7196 10.1184V10.1221H11.5784V10.1184C11.5784 9.85877 11.4109 9.66168 11.1521 9.66168ZM8.95304 10.1263H8.44179V10.9322H8.84137C9.26679 10.9322 9.44054 10.7967 9.44054 10.5388C9.44054 10.283 9.26845 10.1263 8.95304 10.1263ZM12.0939 10.4388H10.7197V10.4938C10.7197 10.7988 10.9035 10.9922 11.1743 10.9922C11.3864 10.9922 11.536 10.8938 11.5806 10.7305H12.0739C12.0235 11.053 11.7443 11.3734 11.1702 11.3734C10.5822 11.3734 10.1981 11.0284 10.1981 10.4126V10.2284C10.1981 9.63884 10.5839 9.29009 11.1481 9.29009C11.7322 9.29009 12.0939 9.66343 12.0939 10.2413V10.4388ZM10.521 9.04259H11.771V8.83426H10.521V9.04259ZM9.04099 11.3343H7.90641V8.62592H9.04308C9.53058 8.62592 9.85016 8.87842 9.85016 9.29301C9.85016 9.62217 9.65224 9.82092 9.38266 9.88634V9.90967C9.71016 9.94176 9.98974 10.1643 9.98974 10.5705C9.98974 11.0551 9.59433 11.3343 9.04099 11.3343ZM10.0002 5.83301C7.69891 5.83301 5.8335 7.69884 5.8335 9.99967C5.8335 12.3009 7.69891 14.1663 10.0002 14.1663C12.3014 14.1663 14.1668 12.3009 14.1668 9.99967C14.1668 7.69884 12.3014 5.83301 10.0002 5.83301Z" fill="white"/>
<mask id="mask0_0_6720" style="mask-type:luminance" maskUnits="userSpaceOnUse" x="5" y="5" width="10" height="10">
<path fill-rule="evenodd" clip-rule="evenodd" d="M8.91908 9.02876C9.17116 9.02876 9.31866 9.16417 9.31866 9.38417C9.31866 9.62001 9.15908 9.75334 8.79741 9.75334H8.44199V9.02876H8.91908ZM11.1521 9.66168C10.8913 9.66168 10.7196 9.86085 10.7196 10.1184V10.1221H11.5784V10.1184C11.5784 9.85877 11.4109 9.66168 11.1521 9.66168ZM8.95304 10.1263H8.44179V10.9322H8.84137C9.26679 10.9322 9.44054 10.7967 9.44054 10.5388C9.44054 10.283 9.26845 10.1263 8.95304 10.1263ZM12.0939 10.4388H10.7197V10.4938C10.7197 10.7988 10.9035 10.9922 11.1743 10.9922C11.3864 10.9922 11.536 10.8938 11.5806 10.7305H12.0739C12.0235 11.053 11.7443 11.3734 11.1702 11.3734C10.5822 11.3734 10.1981 11.0284 10.1981 10.4126V10.2284C10.1981 9.63884 10.5839 9.29009 11.1481 9.29009C11.7322 9.29009 12.0939 9.66343 12.0939 10.2413V10.4388ZM10.521 9.04259H11.771V8.83426H10.521V9.04259ZM9.04099 11.3343H7.90641V8.62592H9.04308C9.53058 8.62592 9.85016 8.87842 9.85016 9.29301C9.85016 9.62217 9.65224 9.82092 9.38266 9.88634V9.90967C9.71016 9.94176 9.98974 10.1643 9.98974 10.5705C9.98974 11.0551 9.59433 11.3343 9.04099 11.3343ZM10.0002 5.83301C7.69891 5.83301 5.8335 7.69884 5.8335 9.99967C5.8335 12.3009 7.69891 14.1663 10.0002 14.1663C12.3014 14.1663 14.1668 12.3009 14.1668 9.99967C14.1668 7.69884 12.3014 5.83301 10.0002 5.83301Z" fill="white"/>
</mask>
<g mask="url(#mask0_0_6720)">
</g>
</svg>
