<svg width="32" height="32" viewBox="0 0 32 32" fill="none" xmlns="http://www.w3.org/2000/svg">
<path fill-rule="evenodd" clip-rule="evenodd" d="M13.3334 7.33333C13.3334 6.96533 13.6321 6.66667 14.0001 6.66667H18.0001C18.3681 6.66667 18.6667 6.96533 18.6667 7.33333V9.33333H13.3334V7.33333ZM12.0001 25.3333H20.0001V12H12.0001V25.3333ZM26.6667 24C26.6667 24.7347 26.0681 25.3333 25.3334 25.3333H22.6667V12H25.3334C26.0681 12 26.6667 12.5987 26.6667 13.3333V24ZM5.33341 13.3333V24C5.33341 24.7347 5.93208 25.3333 6.66675 25.3333H9.33341V12H6.66675C5.93208 12 5.33341 12.5987 5.33341 13.3333ZM25.3334 9.33333H21.3334V7.33333C21.3334 5.496 19.8374 4 18.0001 4H14.0001C12.1627 4 10.6667 5.496 10.6667 7.33333V9.33333H6.66675C4.46141 9.33333 2.66675 11.128 2.66675 13.3333V24C2.66675 26.2053 4.46141 28 6.66675 28H25.3334C27.5387 28 29.3334 26.2053 29.3334 24V13.3333C29.3334 11.128 27.5387 9.33333 25.3334 9.33333V9.33333Z" fill="#C5CEE0"/>
</svg>
