<svg width="32" height="32" viewBox="0 0 32 32" fill="none" xmlns="http://www.w3.org/2000/svg">
<path fill-rule="evenodd" clip-rule="evenodd" d="M9.33333 21.3334C9.33333 20.6001 9.93333 20.0001 10.6667 20.0001C11.4 20.0001 12 20.6001 12 21.3334C12 22.0667 11.4 22.6667 10.6667 22.6667C9.93333 22.6667 9.33333 22.0667 9.33333 21.3334ZM16 20.0001H21.3333C22.0667 20.0001 22.6667 20.6001 22.6667 21.3334C22.6667 22.0667 22.0667 22.6667 21.3333 22.6667H16C15.2667 22.6667 14.6667 22.0667 14.6667 21.3334C14.6667 20.6001 15.2667 20.0001 16 20.0001ZM24 26.6667H8C7.26533 26.6667 6.66667 26.0681 6.66667 25.3334V17.3334H25.3333V25.3334C25.3333 26.0681 24.7347 26.6667 24 26.6667M8 8.00008H9.33333V9.33341C9.33333 10.0667 9.93333 10.6667 10.6667 10.6667C11.4 10.6667 12 10.0667 12 9.33341V8.00008H20V9.33341C20 10.0667 20.6 10.6667 21.3333 10.6667C22.0667 10.6667 22.6667 10.0667 22.6667 9.33341V8.00008H24C24.7347 8.00008 25.3333 8.59875 25.3333 9.33341V14.6667H6.66667V9.33341C6.66667 8.59875 7.26533 8.00008 8 8.00008M24 5.33341H22.6667V4.00008C22.6667 3.26675 22.0667 2.66675 21.3333 2.66675C20.6 2.66675 20 3.26675 20 4.00008V5.33341H12V4.00008C12 3.26675 11.4 2.66675 10.6667 2.66675C9.93333 2.66675 9.33333 3.26675 9.33333 4.00008V5.33341H8C5.79467 5.33341 4 7.12808 4 9.33341V25.3334C4 27.5387 5.79467 29.3334 8 29.3334H24C26.2053 29.3334 28 27.5387 28 25.3334V9.33341C28 7.12808 26.2053 5.33341 24 5.33341" fill="#C5CEE0"/>
<mask id="mask0_36_10465" style="mask-type:luminance" maskUnits="userSpaceOnUse" x="4" y="2" width="24" height="28">
<path fill-rule="evenodd" clip-rule="evenodd" d="M9.33333 21.3334C9.33333 20.6001 9.93333 20.0001 10.6667 20.0001C11.4 20.0001 12 20.6001 12 21.3334C12 22.0667 11.4 22.6667 10.6667 22.6667C9.93333 22.6667 9.33333 22.0667 9.33333 21.3334ZM16 20.0001H21.3333C22.0667 20.0001 22.6667 20.6001 22.6667 21.3334C22.6667 22.0667 22.0667 22.6667 21.3333 22.6667H16C15.2667 22.6667 14.6667 22.0667 14.6667 21.3334C14.6667 20.6001 15.2667 20.0001 16 20.0001ZM24 26.6667H8C7.26533 26.6667 6.66667 26.0681 6.66667 25.3334V17.3334H25.3333V25.3334C25.3333 26.0681 24.7347 26.6667 24 26.6667M8 8.00008H9.33333V9.33341C9.33333 10.0667 9.93333 10.6667 10.6667 10.6667C11.4 10.6667 12 10.0667 12 9.33341V8.00008H20V9.33341C20 10.0667 20.6 10.6667 21.3333 10.6667C22.0667 10.6667 22.6667 10.0667 22.6667 9.33341V8.00008H24C24.7347 8.00008 25.3333 8.59875 25.3333 9.33341V14.6667H6.66667V9.33341C6.66667 8.59875 7.26533 8.00008 8 8.00008M24 5.33341H22.6667V4.00008C22.6667 3.26675 22.0667 2.66675 21.3333 2.66675C20.6 2.66675 20 3.26675 20 4.00008V5.33341H12V4.00008C12 3.26675 11.4 2.66675 10.6667 2.66675C9.93333 2.66675 9.33333 3.26675 9.33333 4.00008V5.33341H8C5.79467 5.33341 4 7.12808 4 9.33341V25.3334C4 27.5387 5.79467 29.3334 8 29.3334H24C26.2053 29.3334 28 27.5387 28 25.3334V9.33341C28 7.12808 26.2053 5.33341 24 5.33341" fill="white"/>
</mask>
<g mask="url(#mask0_36_10465)">
</g>
</svg>
