<svg width="32" height="32" viewBox="0 0 32 32" fill="none" xmlns="http://www.w3.org/2000/svg">
<path fill-rule="evenodd" clip-rule="evenodd" d="M14.6667 20.0001H9.33341C8.60008 20.0001 8.00008 19.4001 8.00008 18.6667C8.00008 17.9334 8.60008 17.3334 9.33341 17.3334H14.6667C15.4001 17.3334 16.0001 17.9334 16.0001 18.6667C16.0001 19.4001 15.4001 20.0001 14.6667 20.0001ZM22.6667 20.0001H20.0001C19.2667 20.0001 18.6667 19.4001 18.6667 18.6667C18.6667 17.9334 19.2667 17.3334 20.0001 17.3334H22.6667C23.4001 17.3334 24.0001 17.9334 24.0001 18.6667C24.0001 19.4001 23.4001 20.0001 22.6667 20.0001ZM26.6667 21.3334C26.6667 22.0681 26.0694 22.6667 25.3334 22.6667H6.66675C5.93075 22.6667 5.33341 22.0681 5.33341 21.3334V14.6667H26.6667V21.3334ZM5.33341 10.6667C5.33341 9.93208 5.93075 9.33341 6.66675 9.33341H25.3334C26.0694 9.33341 26.6667 9.93208 26.6667 10.6667V12.0001H5.33341V10.6667ZM25.3334 6.66675H6.66675C4.46141 6.66675 2.66675 8.46141 2.66675 10.6667V21.3334C2.66675 23.5387 4.46141 25.3334 6.66675 25.3334H25.3334C27.5387 25.3334 29.3334 23.5387 29.3334 21.3334V10.6667C29.3334 8.46141 27.5387 6.66675 25.3334 6.66675V6.66675Z" fill="#C5CEE0"/>
<mask id="mask0_36_12610" style="mask-type:luminance" maskUnits="userSpaceOnUse" x="2" y="6" width="28" height="20">
<path fill-rule="evenodd" clip-rule="evenodd" d="M14.6667 20.0001H9.33341C8.60008 20.0001 8.00008 19.4001 8.00008 18.6667C8.00008 17.9334 8.60008 17.3334 9.33341 17.3334H14.6667C15.4001 17.3334 16.0001 17.9334 16.0001 18.6667C16.0001 19.4001 15.4001 20.0001 14.6667 20.0001ZM22.6667 20.0001H20.0001C19.2667 20.0001 18.6667 19.4001 18.6667 18.6667C18.6667 17.9334 19.2667 17.3334 20.0001 17.3334H22.6667C23.4001 17.3334 24.0001 17.9334 24.0001 18.6667C24.0001 19.4001 23.4001 20.0001 22.6667 20.0001ZM26.6667 21.3334C26.6667 22.0681 26.0694 22.6667 25.3334 22.6667H6.66675C5.93075 22.6667 5.33341 22.0681 5.33341 21.3334V14.6667H26.6667V21.3334ZM5.33341 10.6667C5.33341 9.93208 5.93075 9.33341 6.66675 9.33341H25.3334C26.0694 9.33341 26.6667 9.93208 26.6667 10.6667V12.0001H5.33341V10.6667ZM25.3334 6.66675H6.66675C4.46141 6.66675 2.66675 8.46141 2.66675 10.6667V21.3334C2.66675 23.5387 4.46141 25.3334 6.66675 25.3334H25.3334C27.5387 25.3334 29.3334 23.5387 29.3334 21.3334V10.6667C29.3334 8.46141 27.5387 6.66675 25.3334 6.66675V6.66675Z" fill="white"/>
</mask>
<g mask="url(#mask0_36_12610)">
</g>
</svg>
