<svg width="40" height="23" viewBox="0 0 40 23" fill="none" xmlns="http://www.w3.org/2000/svg">
<rect width="40" height="23" rx="11.5" fill="#00E096"/>
<circle cx="28.5" cy="11.5" r="10.5" fill="white"/>
<path fill-rule="evenodd" clip-rule="evenodd" d="M30.7934 8.60792C31.1917 8.0823 31.9557 7.96805 32.5 8.35275C33.0442 8.73744 33.1625 9.4754 32.7642 10.001L28.8999 15.1005C28.5375 15.5787 27.8384 15.6323 27.4073 15.215L24.3566 12.2616C23.8803 11.8005 23.8812 11.0537 24.3587 10.5937C24.8361 10.1336 25.6093 10.1345 26.0857 10.5957L27.9323 12.3834L30.7934 8.60792Z" fill="#00E096"/>
<mask id="mask0_6_15178" style="mask-type:luminance" maskUnits="userSpaceOnUse" x="24" y="8" width="9" height="8">
<path fill-rule="evenodd" clip-rule="evenodd" d="M30.7934 8.60792C31.1917 8.0823 31.9557 7.96805 32.5 8.35275C33.0442 8.73744 33.1625 9.4754 32.7642 10.001L28.8999 15.1005C28.5375 15.5787 27.8384 15.6323 27.4073 15.215L24.3566 12.2616C23.8803 11.8005 23.8812 11.0537 24.3587 10.5937C24.8361 10.1336 25.6093 10.1345 26.0857 10.5957L27.9323 12.3834L30.7934 8.60792Z" fill="white"/>
</mask>
<g mask="url(#mask0_6_15178)">
</g>
</svg>
