<svg width="20" height="20" viewBox="0 0 20 20" fill="none" xmlns="http://www.w3.org/2000/svg">
<circle cx="10" cy="10" r="10" fill="#006FD6"/>
<path fill-rule="evenodd" clip-rule="evenodd" d="M12.0833 6.45833C12.0833 6.34333 11.9896 6.25 11.875 6.25H10.8333C9.6825 6.25 8.75 7.08958 8.75 8.125V9.25H7.70833C7.59333 9.25 7.5 9.34333 7.5 9.45833V10.5417C7.5 10.6567 7.59333 10.75 7.70833 10.75H8.75V13.5417C8.75 13.6567 8.84333 13.75 8.95833 13.75H10.2083C10.3229 13.75 10.4167 13.6567 10.4167 13.5417V10.75H11.5079C11.6017 10.75 11.6837 10.6875 11.7092 10.5975L12.0096 9.51417C12.0467 9.38167 11.9467 9.25 11.8092 9.25H10.4167V8.125C10.4167 7.91792 10.6029 7.75 10.8333 7.75H11.875C11.9896 7.75 12.0833 7.65667 12.0833 7.54167V6.45833Z" fill="white"/>
<mask id="mask0_0_6717" style="mask-type:luminance" maskUnits="userSpaceOnUse" x="7" y="6" width="6" height="8">
<path fill-rule="evenodd" clip-rule="evenodd" d="M12.0833 6.45833C12.0833 6.34333 11.9896 6.25 11.875 6.25H10.8333C9.6825 6.25 8.75 7.08958 8.75 8.125V9.25H7.70833C7.59333 9.25 7.5 9.34333 7.5 9.45833V10.5417C7.5 10.6567 7.59333 10.75 7.70833 10.75H8.75V13.5417C8.75 13.6567 8.84333 13.75 8.95833 13.75H10.2083C10.3229 13.75 10.4167 13.6567 10.4167 13.5417V10.75H11.5079C11.6017 10.75 11.6837 10.6875 11.7092 10.5975L12.0096 9.51417C12.0467 9.38167 11.9467 9.25 11.8092 9.25H10.4167V8.125C10.4167 7.91792 10.6029 7.75 10.8333 7.75H11.875C11.9896 7.75 12.0833 7.65667 12.0833 7.54167V6.45833Z" fill="white"/>
</mask>
<g mask="url(#mask0_0_6717)">
</g>
</svg>
