<svg width="14" height="14" viewBox="0 0 14 14" fill="none" xmlns="http://www.w3.org/2000/svg">
<path fill-rule="evenodd" clip-rule="evenodd" d="M4.71154 11.667C8.93838 11.667 11.3837 8.38516 11.3837 5.27074C11.3837 5.18499 11.9845 4.66932 12.2418 3.59424C12.2943 3.37607 12.082 3.20399 11.8819 3.29557C11.3685 3.53124 10.8476 3.34457 10.6213 3.07624C9.75096 2.12716 8.29554 2.08166 7.36979 2.97416C6.77304 3.54991 6.51988 4.40741 6.70479 5.22582C4.75004 5.36524 3.40779 4.43891 2.30413 3.16899C2.16179 3.00391 1.89754 3.09082 1.86779 3.30899C1.70446 4.52349 1.65313 7.47632 4.57913 9.17207C4.07104 9.90241 3.07646 10.3335 1.96929 10.5184C1.72429 10.5598 1.66596 10.8993 1.88996 11.009C2.76729 11.4407 3.73154 11.6664 4.71154 11.6652" fill="white"/>
<mask id="mask0_0_6727" style="mask-type:luminance" maskUnits="userSpaceOnUse" x="1" y="2" width="12" height="10">
<path fill-rule="evenodd" clip-rule="evenodd" d="M4.71154 11.667C8.93838 11.667 11.3837 8.38516 11.3837 5.27074C11.3837 5.18499 11.9845 4.66932 12.2418 3.59424C12.2943 3.37607 12.082 3.20399 11.8819 3.29557C11.3685 3.53124 10.8476 3.34457 10.6213 3.07624C9.75096 2.12716 8.29554 2.08166 7.36979 2.97416C6.77304 3.54991 6.51988 4.40741 6.70479 5.22582C4.75004 5.36524 3.40779 4.43891 2.30413 3.16899C2.16179 3.00391 1.89754 3.09082 1.86779 3.30899C1.70446 4.52349 1.65313 7.47632 4.57913 9.17207C4.07104 9.90241 3.07646 10.3335 1.96929 10.5184C1.72429 10.5598 1.66596 10.8993 1.88996 11.009C2.76729 11.4407 3.73154 11.6664 4.71154 11.6652" fill="white"/>
</mask>
<g mask="url(#mask0_0_6727)">
</g>
</svg>
