<svg width="32" height="32" viewBox="0 0 32 32" fill="none" xmlns="http://www.w3.org/2000/svg">
<path fill-rule="evenodd" clip-rule="evenodd" d="M4 9.33333C4 8.59733 4.59733 8 5.33333 8C6.06933 8 6.66667 8.59733 6.66667 9.33333C6.66667 10.0693 6.06933 10.6667 5.33333 10.6667C4.59733 10.6667 4 10.0693 4 9.33333ZM4 16C4 15.264 4.59733 14.6667 5.33333 14.6667C6.06933 14.6667 6.66667 15.264 6.66667 16C6.66667 16.736 6.06933 17.3333 5.33333 17.3333C4.59733 17.3333 4 16.736 4 16ZM5.33333 21.3333C4.59733 21.3333 4 21.9307 4 22.6667C4 23.4027 4.59733 24 5.33333 24C6.06933 24 6.66667 23.4027 6.66667 22.6667C6.66667 21.9307 6.06933 21.3333 5.33333 21.3333ZM10.5807 14.6667H26.7527C27.4393 14.6667 28.0007 15.228 28.0007 15.9147V16.0853C28.0007 16.772 27.4393 17.3333 26.7527 17.3333H10.5807C9.894 17.3333 9.334 16.772 9.334 16.0853V15.9147C9.334 15.228 9.894 14.6667 10.5807 14.6667ZM26.7527 21.3333H10.5807C9.894 21.3333 9.334 21.8947 9.334 22.5813V22.752C9.334 23.4387 9.894 24 10.5807 24H26.7527C27.4393 24 28.0007 23.4387 28.0007 22.752V22.5813C28.0007 21.8947 27.4393 21.3333 26.7527 21.3333ZM10.5807 8H26.7527C27.4393 8 28.0007 8.56133 28.0007 9.248V9.41867C28.0007 10.1053 27.4393 10.6667 26.7527 10.6667H10.5807C9.894 10.6667 9.334 10.1053 9.334 9.41867V9.248C9.334 8.56133 9.894 8 10.5807 8Z" fill="#C5CEE0"/>
<mask id="mask0_36_12075" style="mask-type:luminance" maskUnits="userSpaceOnUse" x="4" y="8" width="25" height="16">
<path fill-rule="evenodd" clip-rule="evenodd" d="M4 9.33333C4 8.59733 4.59733 8 5.33333 8C6.06933 8 6.66667 8.59733 6.66667 9.33333C6.66667 10.0693 6.06933 10.6667 5.33333 10.6667C4.59733 10.6667 4 10.0693 4 9.33333ZM4 16C4 15.264 4.59733 14.6667 5.33333 14.6667C6.06933 14.6667 6.66667 15.264 6.66667 16C6.66667 16.736 6.06933 17.3333 5.33333 17.3333C4.59733 17.3333 4 16.736 4 16ZM5.33333 21.3333C4.59733 21.3333 4 21.9307 4 22.6667C4 23.4027 4.59733 24 5.33333 24C6.06933 24 6.66667 23.4027 6.66667 22.6667C6.66667 21.9307 6.06933 21.3333 5.33333 21.3333ZM10.5807 14.6667H26.7527C27.4393 14.6667 28.0007 15.228 28.0007 15.9147V16.0853C28.0007 16.772 27.4393 17.3333 26.7527 17.3333H10.5807C9.894 17.3333 9.334 16.772 9.334 16.0853V15.9147C9.334 15.228 9.894 14.6667 10.5807 14.6667ZM26.7527 21.3333H10.5807C9.894 21.3333 9.334 21.8947 9.334 22.5813V22.752C9.334 23.4387 9.894 24 10.5807 24H26.7527C27.4393 24 28.0007 23.4387 28.0007 22.752V22.5813C28.0007 21.8947 27.4393 21.3333 26.7527 21.3333ZM10.5807 8H26.7527C27.4393 8 28.0007 8.56133 28.0007 9.248V9.41867C28.0007 10.1053 27.4393 10.6667 26.7527 10.6667H10.5807C9.894 10.6667 9.334 10.1053 9.334 9.41867V9.248C9.334 8.56133 9.894 8 10.5807 8Z" fill="white"/>
</mask>
<g mask="url(#mask0_36_12075)">
</g>
</svg>
