<svg width="34" height="34" viewBox="0 0 34 34" fill="none" xmlns="http://www.w3.org/2000/svg">
<rect width="34" height="34" rx="8" fill="white"/>
<path fill-rule="evenodd" clip-rule="evenodd" d="M19.8325 15.7193L11.8886 8.8478C10.7444 7.85806 9.14217 7.7478 7.89573 8.44951C6.77066 9.02871 6 10.1985 6 11.5507V22.0541C6 23.9811 7.56211 25.5427 9.4886 25.5427C11.4154 25.5427 12.9772 23.9811 12.9772 22.0541V19.015L15.2678 20.9962C16.7251 22.2569 18.9279 22.0977 20.1886 20.6401C21.449 19.1828 21.2895 16.98 19.8325 15.7193Z" fill="#0095FF"/>
<path fill-rule="evenodd" clip-rule="evenodd" d="M28.8986 11.4897C28.8998 10.643 28.5978 9.79196 27.9727 9.11589C26.6824 7.72073 24.4821 7.67885 23.0448 8.92187L18.3257 13.0039L20.5647 14.9484C21.4282 15.6979 21.9245 16.7857 21.9245 17.9296V21.9387C21.9245 23.8592 23.4271 25.5071 25.3476 25.5421C27.3043 25.578 28.9018 24.0028 28.9018 22.0541V11.5506C28.9018 11.5301 28.8989 11.5102 28.8986 11.4897Z" fill="#00E096"/>
</svg>
