<svg width="32" height="32" viewBox="0 0 32 32" fill="none" xmlns="http://www.w3.org/2000/svg">
<path fill-rule="evenodd" clip-rule="evenodd" d="M29.3334 25.3333C29.3334 26.0693 28.7374 26.6667 28.0001 26.6667C27.2627 26.6667 26.6667 26.0693 26.6667 25.3333C26.6667 23.128 24.8721 21.3333 22.6667 21.3333C21.7561 21.3333 20.8907 21.6453 20.1921 22.1987C20.9174 23.5267 21.3334 25.0493 21.3334 26.6667C21.3334 27.4027 20.7374 28 20.0001 28C19.2627 28 18.6667 27.4027 18.6667 26.6667C18.6667 22.9907 15.6761 20 12.0001 20C8.32408 20 5.33341 22.9907 5.33341 26.6667C5.33341 27.4027 4.73741 28 4.00008 28C3.26275 28 2.66675 27.4027 2.66675 26.6667C2.66675 21.52 6.85475 17.3333 12.0001 17.3333C14.5694 17.3333 16.8974 18.3773 18.5867 20.0613C19.7454 19.1653 21.1721 18.6667 22.6667 18.6667C26.3427 18.6667 29.3334 21.6573 29.3334 25.3333M22.6667 12C23.4027 12 24.0001 12.5987 24.0001 13.3333C24.0001 14.068 23.4027 14.6667 22.6667 14.6667C21.9307 14.6667 21.3334 14.068 21.3334 13.3333C21.3334 12.5987 21.9307 12 22.6667 12M22.6667 17.3333C24.8721 17.3333 26.6667 15.5387 26.6667 13.3333C26.6667 11.128 24.8721 9.33333 22.6667 9.33333C20.4614 9.33333 18.6667 11.128 18.6667 13.3333C18.6667 15.5387 20.4614 17.3333 22.6667 17.3333M12.0001 6.66667C13.4707 6.66667 14.6667 7.86267 14.6667 9.33333C14.6667 10.804 13.4707 12 12.0001 12C10.5294 12 9.33341 10.804 9.33341 9.33333C9.33341 7.86267 10.5294 6.66667 12.0001 6.66667M12.0001 14.6667C14.9414 14.6667 17.3334 12.2747 17.3334 9.33333C17.3334 6.392 14.9414 4 12.0001 4C9.05875 4 6.66675 6.392 6.66675 9.33333C6.66675 12.2747 9.05875 14.6667 12.0001 14.6667" fill="#C5CEE0"/>
</svg>
