<svg width="20" height="20" viewBox="0 0 20 20" fill="none" xmlns="http://www.w3.org/2000/svg">
<path fill-rule="evenodd" clip-rule="evenodd" d="M5.50033 3.33341C4.30533 3.33341 3.33366 4.30508 3.33366 5.50008C3.33366 11.6567 8.34283 16.6667 14.5003 16.6667C15.6945 16.6667 16.667 15.6951 16.667 14.5001C16.667 14.4076 16.6612 14.3167 16.6495 14.2267L12.7995 13.3434C12.7228 13.4901 12.6387 13.6492 12.562 13.7976C12.182 14.5226 11.907 15.0492 11.2053 14.7667C8.45033 13.8001 6.20116 11.5501 5.22199 8.76175C4.92449 8.10758 5.49116 7.81091 6.20949 7.43591C6.35533 7.35925 6.51283 7.27675 6.65699 7.20175L5.77366 3.35091C5.68116 3.33925 5.59116 3.33341 5.50033 3.33341M14.5003 18.3334C7.42366 18.3334 1.66699 12.5767 1.66699 5.50008C1.66699 3.38591 3.38616 1.66675 5.50033 1.66675C5.71699 1.66675 5.93116 1.68508 6.13866 1.72091C6.34116 1.75341 6.54449 1.80508 6.74283 1.87341C7.01366 1.96758 7.21783 2.19508 7.28199 2.47508L8.42283 7.44508C8.48616 7.71842 8.40699 8.00508 8.21199 8.20841C8.09866 8.32675 8.09616 8.32925 7.06283 8.87008C7.89949 10.6817 9.35366 12.1309 11.1287 12.9392C11.6703 11.9051 11.6737 11.9017 11.792 11.7884C11.9953 11.5934 12.2837 11.5176 12.5553 11.5776L17.5262 12.7184C17.8053 12.7826 18.0328 12.9859 18.1262 13.2567C18.1945 13.4534 18.2462 13.6567 18.2803 13.8659C18.3153 14.0717 18.3337 14.2851 18.3337 14.5001C18.3337 16.6142 16.6137 18.3334 14.5003 18.3334" fill="#C5CEE0"/>
<mask id="mask0_108_1639" style="mask-type:luminance" maskUnits="userSpaceOnUse" x="1" y="1" width="18" height="18">
<path fill-rule="evenodd" clip-rule="evenodd" d="M5.50033 3.33341C4.30533 3.33341 3.33366 4.30508 3.33366 5.50008C3.33366 11.6567 8.34283 16.6667 14.5003 16.6667C15.6945 16.6667 16.667 15.6951 16.667 14.5001C16.667 14.4076 16.6612 14.3167 16.6495 14.2267L12.7995 13.3434C12.7228 13.4901 12.6387 13.6492 12.562 13.7976C12.182 14.5226 11.907 15.0492 11.2053 14.7667C8.45033 13.8001 6.20116 11.5501 5.22199 8.76175C4.92449 8.10758 5.49116 7.81091 6.20949 7.43591C6.35533 7.35925 6.51283 7.27675 6.65699 7.20175L5.77366 3.35091C5.68116 3.33925 5.59116 3.33341 5.50033 3.33341M14.5003 18.3334C7.42366 18.3334 1.66699 12.5767 1.66699 5.50008C1.66699 3.38591 3.38616 1.66675 5.50033 1.66675C5.71699 1.66675 5.93116 1.68508 6.13866 1.72091C6.34116 1.75341 6.54449 1.80508 6.74283 1.87341C7.01366 1.96758 7.21783 2.19508 7.28199 2.47508L8.42283 7.44508C8.48616 7.71842 8.40699 8.00508 8.21199 8.20841C8.09866 8.32675 8.09616 8.32925 7.06283 8.87008C7.89949 10.6817 9.35366 12.1309 11.1287 12.9392C11.6703 11.9051 11.6737 11.9017 11.792 11.7884C11.9953 11.5934 12.2837 11.5176 12.5553 11.5776L17.5262 12.7184C17.8053 12.7826 18.0328 12.9859 18.1262 13.2567C18.1945 13.4534 18.2462 13.6567 18.2803 13.8659C18.3153 14.0717 18.3337 14.2851 18.3337 14.5001C18.3337 16.6142 16.6137 18.3334 14.5003 18.3334" fill="white"/>
</mask>
<g mask="url(#mask0_108_1639)">
</g>
</svg>
