<svg width="32" height="32" viewBox="0 0 32 32" fill="none" xmlns="http://www.w3.org/2000/svg">
<path fill-rule="evenodd" clip-rule="evenodd" d="M27.7617 18.7435C27.0643 18.4955 26.3043 18.8595 26.0603 19.5555C24.5563 23.8089 20.5123 26.6662 16.0003 26.6662C10.119 26.6662 5.33366 21.8822 5.33366 15.9995C5.33366 11.4875 8.19099 7.44355 12.4443 5.93955C13.139 5.69555 13.503 4.93421 13.2577 4.23955C13.0123 3.54621 12.251 3.18088 11.5563 3.42755C6.23899 5.30621 2.66699 10.3582 2.66699 15.9995C2.66699 23.3515 8.64833 29.3329 16.0003 29.3329C21.6417 29.3329 26.6937 25.7622 28.5737 20.4435C28.819 19.7502 28.4563 18.9889 27.7617 18.7435M18.6666 13.3334V5.42808C22.7479 6.01475 25.9853 9.25075 26.5719 13.3334H18.6666ZM17.3333 2.66675C16.5973 2.66675 15.9999 3.26275 15.9999 4.00008V14.6667C15.9999 15.4041 16.5973 16.0001 17.3333 16.0001H27.9999C28.7359 16.0001 29.3333 15.4041 29.3333 14.6667C29.3333 8.04941 23.9493 2.66675 17.3333 2.66675V2.66675Z" fill="#C5CEE0"/>
<mask id="mask0_36_11200" style="mask-type:luminance" maskUnits="userSpaceOnUse" x="2" y="2" width="28" height="28">
<path fill-rule="evenodd" clip-rule="evenodd" d="M27.7617 18.7435C27.0643 18.4955 26.3043 18.8595 26.0603 19.5555C24.5563 23.8089 20.5123 26.6662 16.0003 26.6662C10.119 26.6662 5.33366 21.8822 5.33366 15.9995C5.33366 11.4875 8.19099 7.44355 12.4443 5.93955C13.139 5.69555 13.503 4.93421 13.2577 4.23955C13.0123 3.54621 12.251 3.18088 11.5563 3.42755C6.23899 5.30621 2.66699 10.3582 2.66699 15.9995C2.66699 23.3515 8.64833 29.3329 16.0003 29.3329C21.6417 29.3329 26.6937 25.7622 28.5737 20.4435C28.819 19.7502 28.4563 18.9889 27.7617 18.7435M18.6666 13.3334V5.42808C22.7479 6.01475 25.9853 9.25075 26.5719 13.3334H18.6666ZM17.3333 2.66675C16.5973 2.66675 15.9999 3.26275 15.9999 4.00008V14.6667C15.9999 15.4041 16.5973 16.0001 17.3333 16.0001H27.9999C28.7359 16.0001 29.3333 15.4041 29.3333 14.6667C29.3333 8.04941 23.9493 2.66675 17.3333 2.66675V2.66675Z" fill="white"/>
</mask>
<g mask="url(#mask0_36_11200)">
</g>
</svg>
