<svg width="20" height="20" viewBox="0 0 20 20" fill="none" xmlns="http://www.w3.org/2000/svg">
<path fill-rule="evenodd" clip-rule="evenodd" d="M16.6667 13.6108C16.6667 13.9175 16.4292 14.1667 16.1359 14.1667H15.4167V12.5C15.4167 11.5808 14.6692 10.8333 13.7501 10.8333H6.25008C5.33091 10.8333 4.58341 11.5808 4.58341 12.5V14.1667H3.86425C3.57091 14.1667 3.33341 13.9175 3.33341 13.6108V8.05583C3.33341 7.74917 3.57091 7.5 3.86425 7.5H5.00008H6.66675H13.3334H15.0001H16.1359C16.4292 7.5 16.6667 7.74917 16.6667 8.05583V13.6108ZM6.25008 15.8333V12.5H13.7501L13.7517 15.8333H6.25008ZM6.67842 4.16667H13.3334V5.83333H6.67258L6.67842 4.16667ZM16.1359 5.83333H15.0001V4.16667C15.0001 3.2475 14.3151 2.5 13.4726 2.5H6.52758C5.68508 2.5 5.00008 3.2475 5.00008 4.16667V5.83333H3.86425C2.65258 5.83333 1.66675 6.83 1.66675 8.05583V13.6108C1.66675 14.8367 2.65258 15.8333 3.86425 15.8333H4.58341C4.58341 16.7525 5.33091 17.5 6.25008 17.5H13.7501C14.6692 17.5 15.4167 16.7525 15.4167 15.8333H16.1359C17.3476 15.8333 18.3334 14.8367 18.3334 13.6108V8.05583C18.3334 6.83 17.3476 5.83333 16.1359 5.83333Z" fill="#C5CEE0"/>
<mask id="mask0_93_5253" style="mask-type:luminance" maskUnits="userSpaceOnUse" x="1" y="2" width="18" height="16">
<path fill-rule="evenodd" clip-rule="evenodd" d="M16.6667 13.6108C16.6667 13.9175 16.4292 14.1667 16.1359 14.1667H15.4167V12.5C15.4167 11.5808 14.6692 10.8333 13.7501 10.8333H6.25008C5.33091 10.8333 4.58341 11.5808 4.58341 12.5V14.1667H3.86425C3.57091 14.1667 3.33341 13.9175 3.33341 13.6108V8.05583C3.33341 7.74917 3.57091 7.5 3.86425 7.5H5.00008H6.66675H13.3334H15.0001H16.1359C16.4292 7.5 16.6667 7.74917 16.6667 8.05583V13.6108ZM6.25008 15.8333V12.5H13.7501L13.7517 15.8333H6.25008ZM6.67842 4.16667H13.3334V5.83333H6.67258L6.67842 4.16667ZM16.1359 5.83333H15.0001V4.16667C15.0001 3.2475 14.3151 2.5 13.4726 2.5H6.52758C5.68508 2.5 5.00008 3.2475 5.00008 4.16667V5.83333H3.86425C2.65258 5.83333 1.66675 6.83 1.66675 8.05583V13.6108C1.66675 14.8367 2.65258 15.8333 3.86425 15.8333H4.58341C4.58341 16.7525 5.33091 17.5 6.25008 17.5H13.7501C14.6692 17.5 15.4167 16.7525 15.4167 15.8333H16.1359C17.3476 15.8333 18.3334 14.8367 18.3334 13.6108V8.05583C18.3334 6.83 17.3476 5.83333 16.1359 5.83333Z" fill="white"/>
</mask>
<g mask="url(#mask0_93_5253)">
</g>
</svg>
