<svg width="20" height="20" viewBox="0 0 20 20" fill="none" xmlns="http://www.w3.org/2000/svg">
<path fill-rule="evenodd" clip-rule="evenodd" d="M14.6348 17.5007C14.5031 17.5007 14.3706 17.4698 14.249 17.4065L9.99981 15.1865L5.75147 17.4065C5.46981 17.5523 5.12981 17.5273 4.87481 17.3407C4.61814 17.154 4.49064 16.8382 4.54481 16.5257L5.35397 11.8357L1.92064 8.51483C1.69231 8.294 1.60981 7.96233 1.70731 7.659C1.80481 7.35733 2.06564 7.1365 2.38064 7.0915L7.13064 6.4015L9.25397 2.12983C9.53564 1.56317 10.4648 1.56317 10.7465 2.12983L12.8698 6.4015L17.6198 7.0915C17.9348 7.1365 18.1956 7.35733 18.2931 7.659C18.3906 7.96233 18.3081 8.294 18.0798 8.51483L14.6465 11.8357L15.4556 16.5257C15.5098 16.8382 15.3815 17.154 15.1256 17.3407C14.9806 17.4473 14.8081 17.5007 14.6348 17.5007Z" fill="#FF9D2B"/>
<mask id="mask0_108_1646" style="mask-type:luminance" maskUnits="userSpaceOnUse" x="1" y="1" width="18" height="17">
<path fill-rule="evenodd" clip-rule="evenodd" d="M14.6348 17.5007C14.5031 17.5007 14.3706 17.4698 14.249 17.4065L9.99981 15.1865L5.75147 17.4065C5.46981 17.5523 5.12981 17.5273 4.87481 17.3407C4.61814 17.154 4.49064 16.8382 4.54481 16.5257L5.35397 11.8357L1.92064 8.51483C1.69231 8.294 1.60981 7.96233 1.70731 7.659C1.80481 7.35733 2.06564 7.1365 2.38064 7.0915L7.13064 6.4015L9.25397 2.12983C9.53564 1.56317 10.4648 1.56317 10.7465 2.12983L12.8698 6.4015L17.6198 7.0915C17.9348 7.1365 18.1956 7.35733 18.2931 7.659C18.3906 7.96233 18.3081 8.294 18.0798 8.51483L14.6465 11.8357L15.4556 16.5257C15.5098 16.8382 15.3815 17.154 15.1256 17.3407C14.9806 17.4473 14.8081 17.5007 14.6348 17.5007Z" fill="white"/>
</mask>
<g mask="url(#mask0_108_1646)">
</g>
</svg>
