<svg width="20" height="20" viewBox="0 0 20 20" fill="none" xmlns="http://www.w3.org/2000/svg">
<path fill-rule="evenodd" clip-rule="evenodd" d="M8.33317 13.3334C8.33317 13.7917 7.95817 14.1667 7.49984 14.1667C7.0415 14.1667 6.6665 13.7917 6.6665 13.3334V10.0001C6.6665 9.54175 7.0415 9.16675 7.49984 9.16675C7.95817 9.16675 8.33317 9.54175 8.33317 10.0001V13.3334ZM13.3332 13.3334C13.3332 13.7917 12.9582 14.1667 12.4998 14.1667C12.0415 14.1667 11.6665 13.7917 11.6665 13.3334V10.0001C11.6665 9.54175 12.0415 9.16675 12.4998 9.16675C12.9582 9.16675 13.3332 9.54175 13.3332 10.0001V13.3334ZM14.9998 15.8334C14.9998 16.2926 14.6265 16.6667 14.1665 16.6667H5.83317C5.37317 16.6667 4.99984 16.2926 4.99984 15.8334V6.66675H14.9998V15.8334ZM8.33317 3.60675C8.33317 3.47758 8.5115 3.33341 8.74984 3.33341H11.2498C11.4882 3.33341 11.6665 3.47758 11.6665 3.60675V5.00008H8.33317V3.60675ZM17.4998 5.00008H16.6665H13.3332V3.60675C13.3332 2.53675 12.399 1.66675 11.2498 1.66675H8.74984C7.60067 1.66675 6.6665 2.53675 6.6665 3.60675V5.00008H3.33317H2.49984C2.0415 5.00008 1.6665 5.37508 1.6665 5.83342C1.6665 6.29175 2.0415 6.66675 2.49984 6.66675H3.33317V15.8334C3.33317 17.2117 4.45484 18.3334 5.83317 18.3334H14.1665C15.5448 18.3334 16.6665 17.2117 16.6665 15.8334V6.66675H17.4998C17.9582 6.66675 18.3332 6.29175 18.3332 5.83342C18.3332 5.37508 17.9582 5.00008 17.4998 5.00008Z" fill="#C5CEE0"/>
<mask id="mask0_64_10195" style="mask-type:luminance" maskUnits="userSpaceOnUse" x="1" y="1" width="18" height="18">
<path fill-rule="evenodd" clip-rule="evenodd" d="M8.33317 13.3334C8.33317 13.7917 7.95817 14.1667 7.49984 14.1667C7.0415 14.1667 6.6665 13.7917 6.6665 13.3334V10.0001C6.6665 9.54175 7.0415 9.16675 7.49984 9.16675C7.95817 9.16675 8.33317 9.54175 8.33317 10.0001V13.3334ZM13.3332 13.3334C13.3332 13.7917 12.9582 14.1667 12.4998 14.1667C12.0415 14.1667 11.6665 13.7917 11.6665 13.3334V10.0001C11.6665 9.54175 12.0415 9.16675 12.4998 9.16675C12.9582 9.16675 13.3332 9.54175 13.3332 10.0001V13.3334ZM14.9998 15.8334C14.9998 16.2926 14.6265 16.6667 14.1665 16.6667H5.83317C5.37317 16.6667 4.99984 16.2926 4.99984 15.8334V6.66675H14.9998V15.8334ZM8.33317 3.60675C8.33317 3.47758 8.5115 3.33341 8.74984 3.33341H11.2498C11.4882 3.33341 11.6665 3.47758 11.6665 3.60675V5.00008H8.33317V3.60675ZM17.4998 5.00008H16.6665H13.3332V3.60675C13.3332 2.53675 12.399 1.66675 11.2498 1.66675H8.74984C7.60067 1.66675 6.6665 2.53675 6.6665 3.60675V5.00008H3.33317H2.49984C2.0415 5.00008 1.6665 5.37508 1.6665 5.83342C1.6665 6.29175 2.0415 6.66675 2.49984 6.66675H3.33317V15.8334C3.33317 17.2117 4.45484 18.3334 5.83317 18.3334H14.1665C15.5448 18.3334 16.6665 17.2117 16.6665 15.8334V6.66675H17.4998C17.9582 6.66675 18.3332 6.29175 18.3332 5.83342C18.3332 5.37508 17.9582 5.00008 17.4998 5.00008Z" fill="white"/>
</mask>
<g mask="url(#mask0_64_10195)">
</g>
</svg>
