<svg width="20" height="20" viewBox="0 0 20 20" fill="none" xmlns="http://www.w3.org/2000/svg">
<circle cx="10" cy="10" r="10" fill="#0095FF"/>
<path fill-rule="evenodd" clip-rule="evenodd" d="M8.36539 13.3333C11.3846 13.3333 13.1312 10.9891 13.1312 8.76454C13.1312 8.70329 13.5604 8.33495 13.7441 7.56704C13.7816 7.4112 13.63 7.28829 13.4871 7.3537C13.1204 7.52204 12.7483 7.3887 12.5866 7.19704C11.965 6.51912 10.9254 6.48662 10.2641 7.12412C9.83789 7.53537 9.65705 8.14787 9.78914 8.73245C8.39289 8.83204 7.43414 8.17037 6.6458 7.26329C6.54414 7.14537 6.35539 7.20745 6.33414 7.36329C6.21747 8.23079 6.1808 10.34 8.2708 11.5512C7.90789 12.0729 7.19747 12.3808 6.40664 12.5129C6.23164 12.5425 6.18997 12.785 6.34997 12.8633C6.97664 13.1716 7.66539 13.3329 8.36539 13.332" fill="white"/>
<mask id="mask0_0_6718" style="mask-type:luminance" maskUnits="userSpaceOnUse" x="6" y="6" width="8" height="8">
<path fill-rule="evenodd" clip-rule="evenodd" d="M8.36539 13.3333C11.3846 13.3333 13.1312 10.9891 13.1312 8.76454C13.1312 8.70329 13.5604 8.33495 13.7441 7.56704C13.7816 7.4112 13.63 7.28829 13.4871 7.3537C13.1204 7.52204 12.7483 7.3887 12.5866 7.19704C11.965 6.51912 10.9254 6.48662 10.2641 7.12412C9.83789 7.53537 9.65705 8.14787 9.78914 8.73245C8.39289 8.83204 7.43414 8.17037 6.6458 7.26329C6.54414 7.14537 6.35539 7.20745 6.33414 7.36329C6.21747 8.23079 6.1808 10.34 8.2708 11.5512C7.90789 12.0729 7.19747 12.3808 6.40664 12.5129C6.23164 12.5425 6.18997 12.785 6.34997 12.8633C6.97664 13.1716 7.66539 13.3329 8.36539 13.332" fill="white"/>
</mask>
<g mask="url(#mask0_0_6718)">
</g>
</svg>
