<svg width="20" height="20" viewBox="0 0 20 20" fill="none" xmlns="http://www.w3.org/2000/svg">
<circle cx="10" cy="10" r="10" fill="#00E096"/>
<path fill-rule="evenodd" clip-rule="evenodd" d="M12.2502 14.1668C8.71183 14.1668 5.8335 11.2885 5.8335 7.75016C5.8335 6.69308 6.6935 5.8335 7.75016 5.8335C7.8585 5.8335 7.96558 5.84266 8.06933 5.86058C8.17058 5.87683 8.27266 5.90266 8.37141 5.93683C8.50725 5.98391 8.60891 6.09766 8.641 6.23766L9.21183 8.72266C9.24308 8.85933 9.2035 9.00266 9.10641 9.10433C9.04933 9.1635 9.04808 9.16475 8.53141 9.43516C8.94975 10.341 9.67683 11.0656 10.5647 11.4697C10.8352 10.9527 10.8368 10.951 10.896 10.8943C10.9981 10.7968 11.1418 10.7589 11.2781 10.7889L13.7631 11.3593C13.9027 11.3914 14.0164 11.4931 14.0635 11.6285C14.0977 11.7268 14.1231 11.8285 14.1402 11.9331C14.1577 12.036 14.1668 12.1427 14.1668 12.2502C14.1668 13.3072 13.3072 14.1668 12.2502 14.1668Z" fill="white"/>
<mask id="mask0_0_6719" style="mask-type:luminance" maskUnits="userSpaceOnUse" x="5" y="5" width="10" height="10">
<path fill-rule="evenodd" clip-rule="evenodd" d="M12.2502 14.1668C8.71183 14.1668 5.8335 11.2885 5.8335 7.75016C5.8335 6.69308 6.6935 5.8335 7.75016 5.8335C7.8585 5.8335 7.96558 5.84266 8.06933 5.86058C8.17058 5.87683 8.27266 5.90266 8.37141 5.93683C8.50725 5.98391 8.60891 6.09766 8.641 6.23766L9.21183 8.72266C9.24308 8.85933 9.2035 9.00266 9.10641 9.10433C9.04933 9.1635 9.04808 9.16475 8.53141 9.43516C8.94975 10.341 9.67683 11.0656 10.5647 11.4697C10.8352 10.9527 10.8368 10.951 10.896 10.8943C10.9981 10.7968 11.1418 10.7589 11.2781 10.7889L13.7631 11.3593C13.9027 11.3914 14.0164 11.4931 14.0635 11.6285C14.0977 11.7268 14.1231 11.8285 14.1402 11.9331C14.1577 12.036 14.1668 12.1427 14.1668 12.2502C14.1668 13.3072 13.3072 14.1668 12.2502 14.1668Z" fill="white"/>
</mask>
<g mask="url(#mask0_0_6719)">
</g>
</svg>
